<svg id="Layer_1" data-name="Layer 1" xmlns="http://www.w3.org/2000/svg" viewBox="0 0 1080 1080"><defs><style>.cls-1{fill:#02ad9d;}</style></defs><path class="cls-1" d="M878.84,729.32C854.35,619.45,792,532.69,693.53,471.09c-100.27-62.76-203.45-62.47-304.92-.88-67.56,41-118,97-153,165.16C205.5,694,189.42,755.47,198.47,821.08c9.48,68.79,45.17,119.59,115.66,144.75,36.16,12.9,73.81,12.79,111.44,7.55,39.86-5.57,76.93-19.44,114.45-36.92,7.31,3.18,13.52,6,19.8,8.61,49,20.61,99.41,33.88,153.87,30.9,75.16-4.12,134.5-45.91,158.87-113.33C888.41,818.78,888.82,774.1,878.84,729.32ZM700.67,801c-37.22,43.42-123.42,106.48-149.83,125.43l-1.36,1-4.27,3L540,934.17l-3.18-2.28-.5-.35-.51-.37-1.91-1.35-1-.72-.55-.38-1.19-.86L528.52,926c-27.15-19.49-112.26-81.88-149.18-125-29.8-34.76-42.52-67-42.52-107.9A109.82,109.82,0,0,1,540,635.43a109.75,109.75,0,0,1,203.17,57.68C743.18,734,730.46,766.25,700.67,801Z"/><path class="cls-1" d="M526,243.16c.63,32.37-5.53,62.18-19,90.33-8.38,17.5-19.39,33.1-35.6,44.37-22.7,15.79-46.86,17.59-72,6.74-10.64-4.59-20.6-10.69-28.63-19-47.56-49.52-69.18-108-57-176.46,8.06-45.14,42.46-78.41,83.59-84.23,47.13-6.65,86.25,12.94,109.42,55.27A158.14,158.14,0,0,1,526,243.16Z"/><path class="cls-1" d="M769.63,237.11c-4.51,41.17-18.15,79-44.45,111.68a135.58,135.58,0,0,1-24.5,24.2c-39.44,29.38-83.34,23.16-113-16.06-21.37-28.23-33.77-69.52-33.82-122.52.93-27.63,7.89-63.24,32.46-93.35,47.34-58,137.75-47.47,170.68,19.86C768.81,185.09,772.52,210.76,769.63,237.11Z"/><path class="cls-1" d="M330.72,450.49c-10,49.82-52.81,75.36-100.9,58.09-60.32-21.67-98.11-65.74-108.38-129.28-9.26-57.26,39.17-109.06,108-108.64,21.12.38,46.6,13.6,65.87,37.28C329.3,349.66,341.34,397.81,330.72,450.49Z"/><path class="cls-1" d="M958.88,381.73C952.27,439.09,896,500,839.44,511.47c-38.18,7.77-68.33-7.91-83.83-43.56-7-16.07-9.18-28.42-9.18-51.69-.13-39,11.68-74.23,35.6-104.83,40-51.23,110.27-54.84,152.59-8.48C955.1,325.35,962.29,352.08,958.88,381.73Z"/></svg>